<svg width="16" height="14" viewBox="0 0 16 14" fill="none" xmlns="http://www.w3.org/2000/svg">
    <path fill-rule="evenodd" clip-rule="evenodd" d="M1.79995 0.599976C1.3756 0.599976 0.968638 0.768546 0.66858 1.0686C0.368522 1.36866 0.199951 1.77563 0.199951 2.19998V11.8C0.199951 12.2243 0.368522 12.6313 0.66858 12.9313C0.968638 13.2314 1.3756 13.4 1.79995 13.4H8.19995C8.6243 13.4 9.03126 13.2314 9.33132 12.9313C9.63138 12.6313 9.79995 12.2243 9.79995 11.8V4.93118C9.79986 4.50686 9.63123 4.09996 9.33115 3.79998L6.59995 1.06878C6.29996 0.768697 5.89306 0.600066 5.46875 0.599976H1.79995ZM5.79995 5.39998C5.79995 5.1878 5.71567 4.98432 5.56564 4.83429C5.41561 4.68426 5.21212 4.59998 4.99995 4.59998C4.78778 4.59998 4.5843 4.68426 4.43427 4.83429C4.28424 4.98432 4.19995 5.1878 4.19995 5.39998V6.99998H2.59995C2.38778 6.99998 2.1843 7.08426 2.03427 7.23429C1.88424 7.38432 1.79995 7.5878 1.79995 7.79998C1.79995 8.01215 1.88424 8.21563 2.03427 8.36566C2.1843 8.51569 2.38778 8.59998 2.59995 8.59998H4.19995V10.2C4.19995 10.4121 4.28424 10.6156 4.43427 10.7657C4.5843 10.9157 4.78778 11 4.99995 11C5.21212 11 5.41561 10.9157 5.56564 10.7657C5.71567 10.6156 5.79995 10.4121 5.79995 10.2V8.59998H7.39995C7.61212 8.59998 7.81561 8.51569 7.96564 8.36566C8.11567 8.21563 8.19995 8.01215 8.19995 7.79998C8.19995 7.5878 8.11567 7.38432 7.96564 7.23429C7.81561 7.08426 7.61212 6.99998 7.39995 6.99998H5.79995V5.39998Z" fill="white"/>
</svg>